<svg width="503" height="503" viewBox="0 0 503 503" fill="none" xmlns="http://www.w3.org/2000/svg">
<circle cx="251.5" cy="251.5" r="251.5" fill="white"/>
<circle cx="251.5" cy="251.5" r="249" stroke="black" stroke-opacity="0.75" stroke-width="5"/>
<path d="M137 29.5C129.167 36.3333 137 90 183.5 131.5C195.5 142.21 187.1 193.9 93.5 219.5" stroke="black" stroke-opacity="0.75" stroke-width="5" stroke-linecap="round"/>
<path d="M335.547 17.2583C333.162 21.2563 330.443 28.0137 337.315 35.2149C345.906 44.2165 361.065 62.2197 365.613 68.2207C370.161 74.2218 363.087 84.7236 345.906 84.7236C338.831 93.7252 351.463 99.2262 350.454 102.227C349.795 104.183 345.906 108.228 343.884 110.228C341.863 112.228 346.074 114.062 348.432 114.729C349.948 115.562 352.071 118.13 348.432 121.73C344.794 125.331 343.884 129.231 343.884 130.732C343.716 132.065 344.086 135.733 346.916 139.733C350.454 144.734 345.4 153.736 338.831 154.736C333.575 155.536 305.31 155.069 291.835 154.736C289.477 166.905 289.207 193.543 306.995 202.744C329.23 214.246 335.799 217.247 378.247 229.749C412.205 239.751 449.33 266.255 463.648 278.258L497 307.763" stroke="black" stroke-opacity="0.75" stroke-width="5"/>
<path d="M208.642 212.002C171.442 216.802 136.809 297.002 124.142 336.502C121.809 363.168 127.642 417.002 169.642 419.002C222.142 421.502 235.142 357.002 238.642 345.502C242.142 334.002 245.142 309.002 238.642 296.002C233.442 285.602 232.809 277.002 233.142 274.002C229.942 224.002 215.475 211.835 208.642 212.002Z" fill="white" stroke="black" stroke-opacity="0.75" stroke-width="4"/>
<path d="M293.534 212.002C330.734 216.802 365.367 297.002 378.034 336.502C380.367 363.168 374.534 417.002 332.534 419.002C280.034 421.502 267.034 357.002 263.534 345.502C260.034 334.002 257.034 309.002 263.534 296.002C268.734 285.602 269.367 277.002 269.034 274.002C272.234 224.002 286.7 211.835 293.534 212.002Z" fill="white" stroke="black" stroke-opacity="0.75" stroke-width="4"/>
<path d="M12.2025 350.12C-8.19753 320.52 20.7031 204.62 25.7025 199.12C30.7018 193.621 52.2026 208.12 47.7026 248.12C44.1026 280.12 46.2026 314.454 47.7026 327.62C62.1026 332.82 83.0359 345.12 91.7026 350.62C91.7026 350.62 100.703 351.62 96.7026 345.12C92.7026 338.62 60.7026 298.62 78.7026 291.62C96.7026 284.62 111.703 312.62 120.703 329.62C129.703 346.62 163.703 376.62 172.203 396.62C179.003 412.62 178.703 465.287 177.703 489.62C145.303 480.02 116.203 460.954 105.703 452.62C107.536 450.454 109.103 441.12 100.703 421.12C90.2026 396.12 37.7025 387.12 12.2025 350.12Z" fill="white" stroke="black" stroke-opacity="0.75" stroke-width="4"/>
<path d="M491.741 350.12C512.141 320.52 483.24 204.62 478.241 199.12C473.242 193.621 451.741 208.12 456.241 248.12C459.841 280.12 457.741 314.454 456.241 327.62C441.841 332.82 420.907 345.12 412.241 350.62C412.241 350.62 403.241 351.62 407.241 345.12C411.241 338.62 443.241 298.62 425.241 291.62C407.241 284.62 392.241 312.62 383.241 329.62C374.241 346.62 340.241 376.62 331.741 396.62C324.941 412.62 325.241 465.287 326.241 489.62C358.641 480.02 387.741 460.954 398.241 452.62C396.407 450.454 394.841 441.12 403.241 421.12C413.741 396.12 466.241 387.12 491.741 350.12Z" fill="white" stroke="black" stroke-opacity="0.75" stroke-width="4"/>
</svg>
