<svg width="361" height="383" viewBox="0 0 361 383" fill="none" xmlns="http://www.w3.org/2000/svg">
<circle cx="182.5" cy="202.5" r="154.5" fill="#B3B3B3"/>
<circle cx="177.949" cy="195.506" r="154" fill="white" stroke="url(#paint0_linear_410_313)"/>
<path d="M360.001 49.4895L1.00075 333.487" stroke="#898981" stroke-width="2"/>
<path d="M107.696 166.49V164.81C110.576 164.81 112.256 164.276 112.736 163.21V122.97C112.256 121.903 110.576 121.37 107.696 121.37V119.69H124.976V121.37C122.096 121.37 120.416 121.903 119.936 122.97V163.21C120.416 164.276 122.096 164.81 124.976 164.81V166.49H107.696ZM135.616 166.49V164.81C136.843 164.81 137.829 164.73 138.576 164.57L120.336 141.37L139.936 121.93C139.189 121.556 137.829 121.37 135.856 121.37V119.69H148.416V121.37C146.176 121.37 144.523 121.983 143.456 123.21L127.376 139.13L146.176 163.53C147.029 164.383 148.709 164.81 151.216 164.81V166.49H135.616Z" fill="black"/>
<path d="M208.696 273.49V271.81C211.576 271.81 213.256 271.276 213.736 270.21V229.97C213.256 228.903 211.576 228.37 208.696 228.37V226.69H225.976V228.37C223.096 228.37 221.416 228.903 220.936 229.97V270.21C221.416 271.276 223.096 271.81 225.976 271.81V273.49H208.696ZM236.616 273.49V271.81C237.843 271.81 238.829 271.73 239.576 271.57L221.336 248.37L240.936 228.93C240.189 228.556 238.829 228.37 236.856 228.37V226.69H249.416V228.37C247.176 228.37 245.523 228.983 244.456 230.21L228.376 246.13L247.176 270.53C248.029 271.383 249.709 271.81 252.216 271.81V273.49H236.616Z" fill="black"/>
<defs>
<linearGradient id="paint0_linear_410_313" x1="293.449" y1="84.0063" x2="68.4492" y2="296.506" gradientUnits="userSpaceOnUse">
<stop stop-opacity="0"/>
<stop offset="1" stop-color="#666666" stop-opacity="0.54"/>
</linearGradient>
</defs>
</svg>
